<svg xmlns="http://www.w3.org/2000/svg" width="161" height="73" viewBox="0 0 161 73">
    <g fill="none" fill-rule="nonzero">
        <path fill="#F8A800" d="M73 35H39V1c18.294 1.115 32.885 15.706 34 34z"/>
        <path fill="#5B7E96" d="M39 39h34c-1.115 18.294-15.706 32.885-34 34V39zM35 35H1C2.115 16.706 16.706 2.115 35 1v34zM35 39v34C16.706 71.885 2.115 57.294 1 39h34z"/>
        <path fill="#FFF" d="M27.954 30h-3.13l-4.648-8.074V30H17V17h3.176l4.648 8.12V17H28v13zM53 30h-3V17h3zM26.482 53.8h-5.23V59H18V46h9v2.418h-5.749v3.01h5.23zM52.985 56.582h-4.101L48.185 59H45l4.582-13h2.836L57 59h-3.23l-.785-2.418zm-3.403-2.417h2.662l-1.353-4.516-1.31 4.516z"/>
        <path fill="#5B7E96" d="M88.798 21.004H87.45L82.38 13.28v7.725h-1.347v-10.06h1.347l5.072 7.77v-7.77h1.302v10.06zM94.05 21.139c-1.033 0-1.84-.314-2.47-.988-.628-.674-.942-1.572-.942-2.65v-.225c0-.718.135-1.392.404-1.976a3.124 3.124 0 0 1 1.167-1.347 3.122 3.122 0 0 1 1.66-.495c.988 0 1.707.315 2.245.944.539.629.808 1.572.808 2.74v.494H91.85c0 .718.224 1.347.628 1.796.404.45.943.674 1.571.674.45 0 .853-.09 1.167-.27.315-.18.584-.449.808-.718l.764.629c-.584.898-1.527 1.392-2.739 1.392zm-.18-6.692c-.494 0-.943.18-1.302.584-.359.359-.583.898-.628 1.572h3.725v-.09c-.045-.63-.224-1.168-.538-1.527-.314-.36-.718-.54-1.257-.54zM100.154 11.707v1.796h1.391v.989h-1.391v4.626c0 .314.045.539.18.674.134.134.314.224.628.224.135 0 .359-.045.628-.09v1.033c-.314.09-.673.135-.987.135-.584 0-.988-.18-1.302-.539-.27-.36-.449-.853-.449-1.482v-4.537h-1.346v-.988h1.346v-1.796h1.302v-.045zM109.625 19.253l1.436-5.705h1.257l-2.154 7.456h-1.033l-1.795-5.66-1.75 5.66h-1.033l-2.155-7.456h1.257l1.481 5.57 1.75-5.57h1.033zM113.306 17.186c0-.718.134-1.392.449-1.976a2.949 2.949 0 0 1 1.211-1.347 3.2 3.2 0 0 1 1.751-.494c1.032 0 1.84.359 2.469 1.078.628.718.942 1.661.942 2.83v.09c0 .718-.134 1.391-.404 1.975a2.949 2.949 0 0 1-1.211 1.348 3.474 3.474 0 0 1-1.796.494c-1.032 0-1.84-.36-2.469-1.078-.628-.719-.942-1.617-.942-2.785v-.135zm1.301.18c0 .809.18 1.482.584 1.976.404.494.898.764 1.526.764s1.167-.27 1.526-.764c.404-.494.584-1.212.584-2.156 0-.808-.18-1.482-.584-1.976-.404-.494-.898-.763-1.526-.763s-1.122.27-1.526.763c-.404.494-.584 1.213-.584 2.156zM125.335 14.671c-.18-.045-.404-.045-.628-.045-.853 0-1.392.36-1.706 1.078v5.3h-1.257v-7.456h1.257v.854c.404-.674 1.033-.988 1.796-.988.269 0 .448.044.583.09v1.167h-.045zM128.567 17.546l-.808.853v2.605h-1.257v-10.6h1.257v6.423l.673-.808 2.334-2.47h1.572l-2.918 3.098 3.232 4.357h-1.482zM136.826 17.186c0-.718.135-1.392.449-1.976a2.949 2.949 0 0 1 1.212-1.347 3.2 3.2 0 0 1 1.75-.494c1.033 0 1.84.359 2.47 1.078.628.718.942 1.661.942 2.83v.09c0 .718-.135 1.391-.404 1.975a2.949 2.949 0 0 1-1.212 1.348 3.474 3.474 0 0 1-1.796.494c-1.032 0-1.84-.36-2.468-1.078-.629-.719-.943-1.617-.943-2.785v-.135zm1.257.18c0 .809.18 1.482.583 1.976.404.494.898.764 1.527.764.628 0 1.167-.27 1.526-.764s.583-1.212.583-2.156c0-.808-.18-1.482-.583-1.976-.404-.494-.898-.763-1.571-.763-.629 0-1.122.27-1.526.763-.36.494-.539 1.213-.539 2.156zM145.848 21.004v-6.468h-1.212v-.988h1.167v-.763c0-.809.225-1.438.629-1.842.404-.404 1.032-.674 1.795-.674.314 0 .584.045.898.135l-.09 1.033c-.224-.045-.449-.045-.673-.045-.404 0-.718.135-.943.36-.224.224-.359.584-.359 1.033v.808h1.571v.988h-1.57v6.468h-1.213v-.045z"/>
        <path fill="#F8A800" d="M82.469 34.838h-1.347v-10.06h1.347zM85.925 27.382l.045.943c.583-.718 1.302-1.078 2.244-1.078 1.571 0 2.38.899 2.38 2.65v4.941h-1.258v-4.94c0-.54-.134-.944-.359-1.213-.224-.27-.628-.404-1.122-.404-.404 0-.763.09-1.077.314a2.22 2.22 0 0 0-.718.853v5.3h-1.257v-7.366h1.122zM92.21 31.065c0-1.168.268-2.066.807-2.784.539-.72 1.257-1.034 2.11-1.034s1.57.315 2.064.899v-3.908h1.257v10.6h-1.167l-.045-.808c-.493.628-1.212.943-2.11.943-.852 0-1.57-.36-2.109-1.078-.539-.719-.808-1.617-.808-2.785v-.045zm1.256.135c0 .853.18 1.527.539 1.976.359.494.852.719 1.436.719.808 0 1.391-.36 1.75-1.078v-3.414c-.403-.718-.987-1.078-1.75-1.078-.629 0-1.122.225-1.481.72-.315.493-.494 1.212-.494 2.155zM103.565 34.973c-1.032 0-1.84-.315-2.468-.988-.629-.674-.943-1.572-.943-2.65v-.225c0-.718.135-1.392.404-1.976a3.124 3.124 0 0 1 1.167-1.348 3.122 3.122 0 0 1 1.66-.494c.988 0 1.706.315 2.245.944.539.628.808 1.572.808 2.74v.538h-5.072c0 .72.224 1.348.628 1.797.404.45.943.674 1.571.674.45 0 .853-.09 1.167-.27.315-.18.584-.449.808-.718l.763.628c-.538.899-1.48 1.348-2.738 1.348zm-.18-6.692c-.493 0-.942.18-1.3.583-.36.36-.584.899-.63 1.572h3.726v-.09c-.045-.628-.224-1.167-.538-1.527-.27-.359-.719-.538-1.257-.538zM114.248 31.2c0 1.123-.269 2.066-.763 2.74-.538.674-1.212 1.033-2.11 1.033-.897 0-1.615-.27-2.154-.854v3.594h-1.257v-10.33h1.167l.045.808a2.73 2.73 0 0 1 2.155-.988c.897 0 1.616.359 2.11 1.033.538.673.762 1.617.762 2.83v.134h.045zm-1.257-.135c0-.853-.18-1.527-.538-1.976a1.83 1.83 0 0 0-1.481-.719c-.763 0-1.347.36-1.751 1.033v3.504c.404.674.988 1.033 1.75 1.033.629 0 1.078-.225 1.437-.719.404-.494.583-1.213.583-2.156zM118.961 34.973c-1.032 0-1.84-.315-2.468-.988-.629-.674-.943-1.572-.943-2.65v-.225c0-.718.135-1.392.404-1.976a3.124 3.124 0 0 1 1.167-1.348 3.122 3.122 0 0 1 1.66-.494c.988 0 1.706.315 2.245.944.539.628.808 1.572.808 2.74v.538h-5.072c0 .72.224 1.348.628 1.797.404.45.943.674 1.571.674.45 0 .853-.09 1.167-.27.315-.18.584-.449.808-.718l.763.628c-.538.899-1.48 1.348-2.738 1.348zm-.134-6.692c-.494 0-.943.18-1.302.583-.36.405-.584.899-.628 1.572h3.725v-.09c-.045-.628-.224-1.167-.538-1.527-.315-.359-.719-.538-1.257-.538zM124.572 27.382l.045.943c.584-.718 1.302-1.078 2.244-1.078 1.571 0 2.38.899 2.38 2.65v4.941h-1.257v-4.94c0-.54-.135-.944-.36-1.213-.224-.27-.628-.404-1.122-.404-.404 0-.763.09-1.077.314a2.22 2.22 0 0 0-.718.853v5.3h-1.257v-7.366h1.122zM130.856 31.065c0-1.168.27-2.066.808-2.784.539-.72 1.257-1.034 2.11-1.034s1.57.315 2.065.899v-3.908h1.256v10.6h-1.167l-.044-.808c-.494.628-1.212.943-2.11.943-.853 0-1.571-.36-2.11-1.078-.538-.719-.808-1.617-.808-2.785v-.045zm1.257.135c0 .853.18 1.527.539 1.976.359.494.853.719 1.436.719.808 0 1.392-.36 1.75-1.078v-3.414c-.358-.718-.987-1.078-1.75-1.078-.628 0-1.122.225-1.481.72-.314.493-.494 1.212-.494 2.155zM142.213 34.973c-1.033 0-1.84-.315-2.47-.988-.628-.674-.942-1.572-.942-2.65v-.225c0-.718.135-1.392.404-1.976a3.124 3.124 0 0 1 1.167-1.348 3.122 3.122 0 0 1 1.661-.494c.987 0 1.706.315 2.244.944.539.628.808 1.572.808 2.74v.538h-5.072c0 .72.225 1.348.628 1.797.404.45.943.674 1.572.674.448 0 .852-.09 1.167-.27.314-.18.583-.449.808-.718l.763.628c-.54.899-1.482 1.348-2.738 1.348zm-.135-6.692c-.494 0-.943.18-1.302.583-.359.405-.583.899-.628 1.572h3.725v-.09c-.045-.628-.224-1.167-.538-1.527-.315-.359-.763-.538-1.257-.538zM147.823 27.382l.045.943c.584-.718 1.302-1.078 2.245-1.078 1.57 0 2.378.899 2.378 2.65v4.941h-1.256v-4.94c0-.54-.135-.944-.36-1.213-.224-.27-.628-.404-1.122-.404-.404 0-.763.09-1.077.314a2.22 2.22 0 0 0-.718.853v5.3h-1.257v-7.366h1.122zM156.127 25.586v1.796h1.392v.988h-1.392v4.627c0 .314.045.539.18.673.134.135.314.225.628.225.135 0 .36-.045.629-.09v1.033c-.315.09-.674.135-.988.135-.583 0-.987-.18-1.302-.54-.269-.358-.448-.852-.448-1.481V28.37h-1.347v-.988h1.347v-1.796h1.301z"/>
        <path fill="#5B7E96" d="M86.598 44.27H82.38v4.447h-1.347V38.656h6.24v1.078h-4.893v3.458h4.22zM88.17 44.9c0-.72.134-1.393.448-1.977a2.949 2.949 0 0 1 1.212-1.348 3.2 3.2 0 0 1 1.75-.494c1.033 0 1.841.36 2.47 1.078.628.719.942 1.662.942 2.83v.09c0 .718-.135 1.392-.404 1.976a2.949 2.949 0 0 1-1.212 1.348 3.474 3.474 0 0 1-1.795.494c-1.033 0-1.84-.36-2.47-1.078-.627-.719-.942-1.617-.942-2.785v-.135zm1.301.134c0 .808.18 1.482.584 1.976.404.494.897.764 1.526.764.628 0 1.167-.27 1.526-.764.404-.494.583-1.213.583-2.156 0-.808-.18-1.482-.583-1.976-.404-.494-.898-.764-1.526-.764-.629 0-1.122.27-1.526.764-.404.494-.584 1.213-.584 2.156zM100.199 42.384c-.18-.045-.404-.045-.629-.045-.852 0-1.391.36-1.705 1.078v5.3h-1.257V41.26h1.257v.853c.404-.673 1.032-.988 1.795-.988.27 0 .45.045.584.09v1.168h-.045zM104.463 48.852c-1.032 0-1.84-.315-2.469-.988-.628-.674-.942-1.572-.942-2.65v-.225c0-.719.134-1.392.404-1.976a3.124 3.124 0 0 1 1.167-1.348 3.122 3.122 0 0 1 1.66-.494c.988 0 1.706.315 2.245.943.538.63.808 1.572.808 2.74v.54h-5.072c0 .718.224 1.347.628 1.796.404.449.943.674 1.571.674.449 0 .853-.09 1.167-.27.314-.18.584-.45.808-.719l.763.63c-.538.853-1.481 1.347-2.738 1.347zm-.18-6.738c-.493 0-.942.18-1.301.584-.36.36-.584.899-.629 1.572h3.726v-.09c-.045-.628-.224-1.167-.539-1.527-.314-.359-.718-.539-1.256-.539zM110.074 41.216l.045.943c.583-.718 1.301-1.078 2.244-1.078 1.571 0 2.379.899 2.379 2.65v4.941h-1.257v-4.94c0-.54-.134-.944-.359-1.213-.224-.27-.628-.405-1.122-.405-.404 0-.763.09-1.077.315a2.22 2.22 0 0 0-.718.853v5.3h-1.257v-7.456h1.122v.09zM120.981 46.696c0-.36-.134-.63-.404-.809-.269-.18-.718-.359-1.346-.494-.629-.135-1.167-.314-1.526-.494-.36-.18-.674-.404-.853-.674-.18-.27-.27-.583-.27-.943 0-.629.27-1.123.763-1.572.54-.404 1.168-.629 1.975-.629.853 0 1.527.225 2.065.674.539.45.808.988.808 1.662h-1.302c0-.36-.134-.629-.448-.898-.315-.27-.674-.36-1.123-.36-.448 0-.807.09-1.077.315-.27.224-.404.449-.404.808 0 .315.135.54.36.719.224.135.673.314 1.301.449a8.158 8.158 0 0 1 1.571.494c.404.18.673.45.898.719.18.27.27.629.27 1.033 0 .673-.27 1.212-.809 1.617-.539.404-1.212.584-2.065.584-.583 0-1.122-.09-1.57-.315-.45-.224-.809-.494-1.078-.898a2.069 2.069 0 0 1-.404-1.213h1.257c.045.45.18.764.494 1.033.314.27.763.36 1.256.36.494 0 .853-.09 1.168-.315.314-.224.493-.494.493-.853zM123.944 39.24c0-.225.045-.404.18-.54.134-.134.313-.224.583-.224.27 0 .449.09.583.225.135.135.18.314.18.539 0 .224-.045.36-.18.539-.134.135-.314.224-.583.224-.27 0-.449-.09-.584-.224-.134-.135-.18-.315-.18-.54zm1.391 9.432h-1.257v-7.456h1.257v7.456zM130.363 47.774c.448 0 .852-.135 1.211-.405.36-.269.54-.628.584-1.033h1.212c-.045.45-.18.854-.449 1.213-.27.404-.628.674-1.077.943-.45.225-.943.36-1.437.36-1.032 0-1.84-.36-2.423-1.033-.584-.674-.898-1.617-.898-2.785v-.225c0-.718.134-1.392.404-1.931.27-.584.628-.988 1.167-1.303.494-.314 1.077-.449 1.75-.449.853 0 1.527.27 2.065.764.539.494.853 1.168.898 1.931h-1.212c-.045-.494-.224-.898-.539-1.213-.314-.314-.718-.449-1.212-.449-.628 0-1.167.225-1.526.719-.359.45-.538 1.123-.538 2.021v.225c0 .853.18 1.527.538 1.976.314.45.808.674 1.481.674zM86.598 59.9H82.38l-.943 2.65H80.09l3.815-10.06h1.167l3.86 10.06h-1.346l-.988-2.65zm-3.815-1.077h3.411l-1.705-4.716-1.706 4.716zM93.062 61.653c.449 0 .853-.135 1.212-.405s.538-.629.583-1.033h1.212c-.045.45-.18.854-.449 1.213-.269.404-.628.674-1.077.943-.449.225-.942.36-1.436.36-1.033 0-1.84-.36-2.424-1.034-.584-.673-.898-1.616-.898-2.784v-.225c0-.719.135-1.392.404-1.931.27-.584.629-.988 1.167-1.303.494-.314 1.078-.449 1.75-.449.854 0 1.527.27 2.066.764.538.494.852 1.167.897 1.931h-1.257c-.044-.494-.224-.898-.538-1.213-.314-.314-.718-.449-1.212-.449-.628 0-1.167.225-1.526.719-.36.449-.539 1.123-.539 2.021v.225c0 .853.18 1.527.539 1.976.359.404.898.674 1.526.674zM100.468 61.653c.449 0 .853-.135 1.212-.405.36-.27.539-.629.584-1.033h1.212c-.045.45-.18.854-.45 1.213-.269.404-.628.674-1.077.943-.448.225-.942.36-1.436.36-1.032 0-1.84-.36-2.424-1.034-.583-.673-.898-1.616-.898-2.784v-.225c0-.719.135-1.392.404-1.931.27-.584.629-.988 1.167-1.303.494-.314 1.078-.449 1.751-.449.853 0 1.526.27 2.065.764.538.494.853 1.167.898 1.931h-1.212c-.045-.494-.225-.898-.539-1.213-.314-.314-.718-.449-1.212-.449-.628 0-1.167.225-1.526.719-.36.449-.539 1.123-.539 2.021v.225c0 .853.18 1.527.539 1.976.314.404.808.674 1.481.674zM104.553 58.733c0-.719.135-1.392.449-1.976.314-.584.673-1.033 1.212-1.348a3.2 3.2 0 0 1 1.75-.494c1.033 0 1.84.36 2.469 1.078.628.719.943 1.662.943 2.83v.09c0 .718-.135 1.392-.404 1.976a2.949 2.949 0 0 1-1.212 1.347 3.474 3.474 0 0 1-1.796.495c-1.032 0-1.84-.36-2.469-1.078-.628-.72-.942-1.617-.942-2.785v-.135zm1.257.135c0 .808.18 1.482.583 1.976.404.494.898.764 1.526.764.629 0 1.167-.27 1.526-.764.36-.494.584-1.213.584-2.156 0-.808-.18-1.482-.584-1.976-.404-.494-.897-.764-1.57-.764-.629 0-1.123.27-1.527.764-.359.539-.538 1.257-.538 2.156zM117.525 61.787c-.494.584-1.212.899-2.2.899-.807 0-1.39-.225-1.795-.674-.404-.45-.628-1.168-.628-2.066v-4.851h1.257V59.9c0 1.123.448 1.707 1.391 1.707.988 0 1.616-.36 1.93-1.078v-5.435h1.257v7.456h-1.212v-.764zM121.924 55.05l.045.943c.583-.718 1.301-1.078 2.244-1.078 1.571 0 2.379.899 2.379 2.65v4.94h-1.257v-4.94c0-.539-.134-.943-.359-1.212-.224-.27-.628-.405-1.122-.405-.404 0-.763.09-1.077.315a2.22 2.22 0 0 0-.718.853v5.435h-1.257v-7.456h1.122v-.045zM130.228 53.253v1.797h1.391v.988h-1.391v4.626c0 .315.045.54.18.674.134.135.314.225.628.225.134 0 .359-.045.628-.09v1.033c-.314.09-.673.135-.987.135-.584 0-.988-.18-1.302-.54-.27-.359-.449-.853-.449-1.482v-4.626h-1.346v-.988h1.346v-1.797h1.302v.045zM137.724 62.55c-.09-.134-.135-.403-.18-.808-.583.63-1.301.944-2.11.944-.718 0-1.346-.225-1.795-.63-.449-.403-.718-.942-.718-1.571 0-.764.314-1.393.898-1.797.583-.404 1.436-.629 2.513-.629h1.257v-.584c0-.449-.134-.808-.404-1.078-.27-.269-.673-.404-1.167-.404a2 2 0 0 0-1.167.36c-.314.224-.449.494-.449.853h-1.301c0-.36.134-.719.404-1.078.269-.36.628-.629 1.077-.809.449-.224.942-.314 1.481-.314.853 0 1.526.225 2.02.629s.718 1.033.763 1.797v3.458c0 .674.09 1.213.27 1.617v.09h-1.392v-.045zm-2.11-.987c.404 0 .763-.09 1.122-.315.36-.224.629-.494.763-.808v-1.527h-.987c-1.571 0-2.334.449-2.334 1.392 0 .404.135.719.404.943.27.225.628.315 1.032.315zM142.033 55.05l.045.943c.583-.718 1.302-1.078 2.244-1.078 1.571 0 2.38.899 2.38 2.65v4.94h-1.258v-4.94c0-.539-.134-.943-.359-1.212-.224-.27-.628-.405-1.122-.405-.404 0-.763.09-1.077.315a2.22 2.22 0 0 0-.718.853v5.435h-1.257v-7.456h1.122v-.045zM150.337 53.253v1.797h1.391v.988h-1.391v4.626c0 .315.045.54.18.674.134.135.314.225.628.225.135 0 .359-.045.628-.09v1.033c-.314.09-.673.135-.987.135-.584 0-.988-.18-1.302-.54-.27-.359-.449-.853-.449-1.482v-4.626h-1.346v-.988h1.346v-1.797h1.302v.045zM157.564 60.575c0-.36-.135-.63-.404-.809-.27-.18-.719-.36-1.347-.494-.628-.135-1.167-.314-1.526-.494-.36-.18-.673-.404-.853-.674-.18-.27-.27-.584-.27-.943 0-.629.27-1.123.764-1.572.538-.404 1.167-.629 1.975-.629.853 0 1.526.225 2.065.674.538.45.808.988.808 1.662h-1.302c0-.36-.135-.63-.449-.899s-.673-.359-1.122-.359c-.449 0-.808.09-1.077.315-.27.224-.404.449-.404.808 0 .314.134.539.359.719.224.134.673.314 1.301.449.629.135 1.167.314 1.527.494.359.18.673.449.897.719.18.269.27.628.27 1.033 0 .673-.27 1.212-.808 1.617-.539.404-1.212.583-2.065.583-.584 0-1.122-.09-1.571-.314-.449-.225-.808-.494-1.077-.898a2.069 2.069 0 0 1-.404-1.213h1.256c.045.45.18.764.494 1.033.314.27.763.36 1.257.36.494 0 .853-.09 1.167-.315.314-.225.539-.539.539-.853z"/>
    </g>
</svg>
